<?xml version="1.0" encoding="iso-8859-1"?>
<!-- Generator: Adobe Illustrator 18.1.1, SVG Export Plug-In . SVG Version: 6.00 Build 0)  -->
<svg version="1.1" id="Capa_1" xmlns="http://www.w3.org/2000/svg" xmlns:xlink="http://www.w3.org/1999/xlink" x="0px" y="0px"
	 viewBox="0 0 66.959 66.959" style="enable-background:new 0 0 66.959 66.959;" xml:space="preserve">
<path d="M48.787,25.502c0.02-0.074,0.046-0.146,0.047-0.227c0-0.134-0.033-0.258-0.085-0.373C47.941,14.505,41.945,10.6,39.94,9.58
	l0.021-6.525c0.002-0.807-0.31-1.566-0.878-2.141c-0.568-0.574-1.327-0.891-2.135-0.894L30.331,0c-1.661,0-3.017,1.352-3.022,3.014
	l-0.022,6.525c-2.005,1.002-7.982,4.842-8.895,15.142c-0.098,0.144-0.17,0.308-0.17,0.495c0,0.149,0.044,0.283,0.108,0.407
	c-0.032,0.554-0.063,1.109-0.065,1.698l-0.1,30.563c-0.024,0.08-0.051,0.16-0.051,0.248c0,0.088,0.026,0.167,0.049,0.247
	l-0.018,5.507c-0.002,0.809,0.31,1.568,0.879,2.141c0.569,0.572,1.328,0.891,2.135,0.893l24.533,0.08c0.001,0,0.012,0,0.013,0
	c1.66,0,3.016-1.352,3.021-3.014l0.121-36.562C48.848,26.73,48.822,26.111,48.787,25.502z M20.065,27.287
	c0.001-0.42,0.032-0.804,0.049-1.204l3.321,0.011L23.332,57.21l-3.366-0.011L20.065,27.287z M25.236,26.1l4.357,0.014L29.49,57.23
	l-4.357-0.014L25.236,26.1z M31.394,26.12l4.357,0.014l-0.103,31.116l-4.357-0.014L31.394,26.12z M37.553,26.14l4.357,0.014
	l-0.103,31.117l-4.357-0.014L37.553,26.14z M43.711,26.16l3.293,0.011c0.015,0.401,0.043,0.785,0.042,1.206l-0.099,29.911
	l-3.339-0.011L43.711,26.16z M29.089,9.186l0.005-1.451l9.052,0.031L38.14,9.214L29.089,9.186z M30.336,1.801l6.607,0.02
	c0.674,0.002,1.221,0.553,1.218,1.229l-0.01,2.915l-9.052-0.031l0.01-2.914C29.111,2.348,29.659,1.801,30.336,1.801z M28.456,10.981
	c0.005,0,0.01,0.003,0.015,0.003l10.295,0.033c0.988,0.42,7.086,3.434,8.116,13.352l-26.634-0.087
	C21.343,14.355,27.48,11.388,28.456,10.981z M45.704,65.158v0.9l-0.006-0.9l-24.535-0.08c-0.326,0-0.633-0.129-0.863-0.359
	c-0.23-0.232-0.356-0.539-0.355-0.867l0.016-4.852l26.98,0.09l-0.016,4.851C46.922,64.611,46.374,65.158,45.704,65.158z"/>
<g>
</g>
<g>
</g>
<g>
</g>
<g>
</g>
<g>
</g>
<g>
</g>
<g>
</g>
<g>
</g>
<g>
</g>
<g>
</g>
<g>
</g>
<g>
</g>
<g>
</g>
<g>
</g>
<g>
</g>
</svg>
